<?xml version="1.0" encoding="UTF-8" standalone="no"?>
<!-- Created with Inkscape (http://www.inkscape.org/) -->

<svg
   width="74.235039mm"
   height="19.703897mm"
   viewBox="0 0 74.235039 19.703897"
   version="1.1"
   id="svg1758"
   inkscape:version="1.2.1 (9c6d41e410, 2022-07-14)"
   sodipodi:docname="drawing.svg"
   xmlns:inkscape="http://www.inkscape.org/namespaces/inkscape"
   xmlns:sodipodi="http://sodipodi.sourceforge.net/DTD/sodipodi-0.dtd"
   xmlns="http://www.w3.org/2000/svg"
   xmlns:svg="http://www.w3.org/2000/svg">
  <sodipodi:namedview
     id="namedview1760"
     pagecolor="#ffffff"
     bordercolor="#000000"
     borderopacity="0.25"
     inkscape:showpageshadow="2"
     inkscape:pageopacity="0.0"
     inkscape:pagecheckerboard="0"
     inkscape:deskcolor="#d1d1d1"
     inkscape:document-units="mm"
     showgrid="false"
     inkscape:zoom="1.0074671"
     inkscape:cx="165.26595"
     inkscape:cy="-230.77678"
     inkscape:window-width="1920"
     inkscape:window-height="1001"
     inkscape:window-x="-9"
     inkscape:window-y="-9"
     inkscape:window-maximized="1"
     inkscape:current-layer="layer1" />
  <defs
     id="defs1755">
    <clipPath
       clipPathUnits="userSpaceOnUse"
       id="clipPath18">
      <path
         d="M 0,765.66 H 1361.17 V 0 H 0 Z"
         id="path16" />
    </clipPath>
  </defs>
  <g
     inkscape:label="Layer 1"
     inkscape:groupmode="layer"
     id="layer1"
     transform="translate(-65.774372,-150.68859)">
    <g
       id="g12"
       transform="matrix(0.15567712,0,0,-0.15567712,-3.2500295,218.89675)">
      <g
         id="g14"
         clip-path="url(#clipPath18)">
        <g
           id="g20"
           transform="translate(443.3818,386.2588)">
          <path
             d="m 0,0 c 0,21.812 12.692,34.628 34.381,34.628 9.612,0 18.976,-4.191 25.386,-11.091 L 49.415,13.802 c -3.82,3.82 -8.873,6.038 -13.678,6.038 -10.721,0 -17.13,-7.395 -17.13,-19.717 0,-12.076 6.409,-19.225 17.252,-19.225 4.93,0 10.229,1.973 14.296,5.422 l 9.981,-10.596 c -6.902,-6.161 -16.143,-9.86 -25.139,-9.86 C 12.938,-34.136 0,-21.442 0,0"
             style="fill:#000000;fill-opacity:1;fill-rule:nonzero;stroke:none"
             id="path22" />
        </g>
        <g
           id="g24"
           transform="translate(554.4102,386.6289)">
          <path
             d="m 0,0 c 0,12.198 -6.039,19.47 -16.021,19.47 -10.104,0 -16.142,-7.272 -16.142,-19.47 0,-12.323 6.038,-19.472 16.142,-19.472 C -6.039,-19.472 0,-12.323 0,0 m -50.771,0 c 0,21.564 12.816,34.258 34.75,34.258 C 5.791,34.258 18.73,21.564 18.73,0 c 0,-21.688 -12.939,-34.505 -34.751,-34.505 -21.934,0 -34.75,12.817 -34.75,34.505"
             style="fill:#000000;fill-opacity:1;fill-rule:nonzero;stroke:none"
             id="path26" />
        </g>
        <g
           id="g28"
           transform="translate(646.3359,399.0742)">
          <path
             d="M 0,0 V -45.718 H -17.498 V -3.45 c 0,6.531 -4.437,10.474 -12.076,10.474 -6.038,0 -11.953,-1.848 -15.775,-4.929 v -47.813 h -17.498 v 45.595 c 0,4.436 -3.697,7.887 -9.858,9.119 l 7.023,13.432 c 8.134,-1.725 14.049,-4.929 17.376,-9.241 6.41,5.544 15.035,8.625 24.278,8.625 C -8.995,21.812 0,13.679 0,0"
             style="fill:#000000;fill-opacity:1;fill-rule:nonzero;stroke:none"
             id="path30" />
        </g>
        <g
           id="g32"
           transform="translate(723.1045,399.0742)">
          <path
             d="M 0,0 V -45.718 H -17.498 V -3.45 c 0,6.531 -4.437,10.474 -12.076,10.474 -6.038,0 -11.953,-1.848 -15.775,-4.929 v -47.813 h -17.498 v 45.595 c 0,4.436 -3.697,7.887 -9.858,9.119 l 7.024,13.432 c 8.133,-1.725 14.048,-4.929 17.375,-9.241 6.41,5.544 15.035,8.625 24.278,8.625 C -8.995,21.812 0,13.679 0,0"
             style="fill:#000000;fill-opacity:1;fill-rule:nonzero;stroke:none"
             id="path34" />
        </g>
        <g
           id="g36"
           transform="translate(748.0889,393.1592)">
          <path
             d="m 0,0 c 4.312,-1.108 9.365,-1.725 14.048,-1.725 8.381,0 13.185,2.834 13.185,7.887 0,4.929 -3.943,7.763 -10.596,7.763 C 7.764,13.925 1.85,8.873 0,0 m 36.847,-21.073 7.515,-11.952 c -6.9,-5.053 -17.498,-8.011 -28.589,-8.011 -22.058,0 -34.998,12.817 -34.998,34.505 0,21.565 13.679,34.258 36.847,34.258 17.868,0 28.219,-8.01 28.219,-21.565 0,-12.939 -9.859,-20.579 -26.493,-20.579 -7.026,0 -14.049,1.355 -19.718,3.819 1.478,-9.859 8.258,-15.403 19.1,-15.403 7.025,0 12.57,1.602 18.117,4.928"
             style="fill:#000000;fill-opacity:1;fill-rule:nonzero;stroke:none"
             id="path38" />
        </g>
        <g
           id="g40"
           transform="translate(797.501,386.2588)">
          <path
             d="m 0,0 c 0,21.812 12.693,34.628 34.382,34.628 9.611,0 18.977,-4.191 25.386,-11.091 L 49.416,13.802 c -3.819,3.82 -8.873,6.038 -13.679,6.038 -10.719,0 -17.129,-7.395 -17.129,-19.717 0,-12.076 6.41,-19.225 17.252,-19.225 4.93,0 10.229,1.973 14.295,5.422 l 9.983,-10.596 c -6.903,-6.161 -16.145,-9.86 -25.14,-9.86 C 12.939,-34.136 0,-21.442 0,0"
             style="fill:#000000;fill-opacity:1;fill-rule:nonzero;stroke:none"
             id="path42" />
        </g>
        <g
           id="g44"
           transform="translate(920.2344,356.6836)">
          <path
             d="m 0,0 c -7.146,-2.834 -15.279,-4.561 -21.812,-4.561 -14.293,0 -22.796,7.519 -22.796,20.333 v 32.411 h -13.31 v 14.788 h 13.434 l 0.368,14.171 17.007,4.313 V 62.971 H -3.327 V 48.183 H -27.109 V 18.114 c 0,-4.928 3.696,-7.639 9.857,-7.639 3.697,0 8.257,0.739 12.446,2.34 z"
             style="fill:#000000;fill-opacity:1;fill-rule:nonzero;stroke:none"
             id="path46" />
        </g>
        <g
           id="g48"
           transform="translate(704.7666,333.7666)">
          <path
             d="m 0,0 c -10.507,5.818 -12.811,12.194 -12.904,12.463 l -4.277,-1.4 -4.298,-1.33 c 0.139,-0.453 0.856,-2.54 2.852,-5.388 -22.548,-19.577 -43.374,-19.594 -65.14,-0.046 2.021,2.872 2.745,4.979 2.885,5.434 l -8.575,2.73 C -89.551,12.194 -91.854,5.818 -102.361,0 L -98,-7.873 c 2.172,1.203 4.076,2.442 5.747,3.681 13.235,-11.995 26.922,-18.005 40.718,-18.005 13.805,0 27.718,6.021 41.389,18.033 1.68,-1.248 3.596,-2.497 5.785,-3.709 z"
             style="fill:#f2ca15;fill-opacity:1;fill-rule:nonzero;stroke:none"
             id="path50" />
        </g>
      </g>
    </g>
  </g>
</svg>
